<?xml version="1.0" standalone="no"?><!DOCTYPE svg PUBLIC "-//W3C//DTD SVG 1.1//EN" "http://www.w3.org/Graphics/SVG/1.1/DTD/svg11.dtd"><svg t="1493476073279" class="icon" style="" viewBox="0 0 1024 1024" version="1.1" xmlns="http://www.w3.org/2000/svg" p-id="1434" xmlns:xlink="http://www.w3.org/1999/xlink" width="200" height="200"><defs><style type="text/css"></style></defs><path d="M768.059863 819.373553c-8.463766 15.000646-55.672974 108.84908-182.324512 122.19504L392.34583 941.568592c-10.955516 0-22.776749 0-29.076222 0-1.410116 0-3.149736 0-4.012384-0.041956-0.979304 0-6.517437-0.829901-7.816013-6.986111-0.541329-2.63706 0.104377-4.505617 1.086751-6.043646 0.211824-1.046842 2.606361-5.001921 3.352351-6.592139 8.909927-15.823384 28.982078-47.800679 59.803038-96.051613l495.086795-762.444982L203.415876 63.408145l0 312.488037 25.502837 0c18.554588-97.367585 42.425252-166.710906 79.005378-208.632691 31.581276-36.159548 65.437361-57.420781 98.648764-68.303642 31.583323-10.495028 71.187319-16.259312 121.001865-14.447037l95.167476 0 3.038196 0c37.331233-0.11461 38.85596 0 42.335201 2.52245 1.727341 1.326205 2.604314 2.911306 3.142573 4.396123 0.964978 3.080152-0.538259 6.977925-1.951445 9.729595-1.191128 2.033309-9.123798 14.886035-9.123798 14.886035L113.230877 960.591855l758.470461 0L871.701338 583.703065l-26.699082 0C827.746244 679.80789 803.220664 751.398392 768.059863 819.373553z" p-id="1435" fill="#d81e06"></path></svg>